<?xml version="1.0" standalone="no"?>
<!DOCTYPE svg PUBLIC "-//W3C//DTD SVG 20010904//EN"
 "http://www.w3.org/TR/2001/REC-SVG-20010904/DTD/svg10.dtd">
<svg version="1.0" xmlns="http://www.w3.org/2000/svg"
 width="193.000000pt" height="196.000000pt" viewBox="0 0 193.000000 196.000000"
 preserveAspectRatio="xMidYMid meet">

<g transform="translate(0.000000,196.000000) scale(0.100000,-0.100000)"
fill="#000000" stroke="none">
<path d="M954 1660 c-220 -32 -393 -196 -435 -408 -15 -80 -7 -199 20 -276 12
-33 21 -60 21 -60 0 -1 -34 -32 -76 -70 l-75 -69 -34 33 -34 33 -48 -41 c-26
-22 -68 -61 -92 -86 l-44 -45 178 -183 c98 -101 183 -184 189 -186 6 -1 49 36
95 82 84 84 85 86 66 106 l-18 20 264 0 265 0 79 64 c114 91 225 228 291 357
32 64 31 88 -4 101 l-28 11 0 101 c0 146 -39 251 -133 358 -98 112 -293 181
-447 158z m176 -41 c131 -30 261 -133 321 -255 42 -86 44 -138 7 -167 -23 -17
-43 -21 -127 -22 -85 0 -105 -4 -128 -21 -31 -23 -41 -57 -23 -78 18 -23 61
-25 178 -9 121 16 153 13 132 -12 -7 -8 -19 -15 -28 -15 -27 0 -96 -47 -117
-80 -26 -41 -146 -105 -164 -87 -7 7 -59 14 -129 18 -107 5 -122 8 -176 37
-53 29 -67 32 -147 32 -48 0 -99 -4 -113 -10 -14 -5 -26 -8 -26 -6 0 3 -3 11
-6 20 -4 10 5 20 27 32 18 9 62 39 98 66 74 57 70 56 234 17 90 -22 100 -22
125 -8 35 20 33 54 -7 112 -26 39 -36 45 -76 51 -49 6 -53 6 -147 -15 l-57
-12 -51 47 c-44 39 -62 48 -100 48 -3 1 -18 -2 -34 -6 -27 -7 -28 -6 -22 21
20 80 131 209 220 255 104 54 230 71 336 47z m-415 -399 c60 -54 70 -57 130
-35 22 8 68 14 101 15 61 0 62 0 88 -40 14 -22 26 -44 26 -50 0 -16 -60 -12
-141 10 -41 11 -95 20 -121 20 -41 0 -55 -6 -112 -50 -83 -64 -114 -79 -126
-60 -12 20 -22 136 -15 171 8 33 55 69 92 69 13 0 46 -21 78 -50z m785 -74 l0
-33 -72 -6 c-40 -4 -101 -10 -135 -13 -34 -4 -70 -4 -79 0 -16 6 -17 8 -1 24
14 13 43 18 132 22 90 4 118 9 132 23 23 23 23 22 23 -17z m40 -146 c13 -8 10
-19 -19 -72 -65 -120 -176 -253 -284 -339 l-49 -39 -281 0 -282 1 -94 100 -95
101 85 79 c96 89 130 104 229 96 47 -3 81 -13 124 -36 54 -29 65 -31 162 -31
91 0 107 -3 124 -20 26 -26 25 -62 -1 -86 -18 -17 -40 -19 -175 -22 -125 -3
-154 -6 -154 -18 0 -12 28 -14 160 -14 l160 0 31 28 c24 21 31 36 32 66 1 36
4 39 67 71 37 19 77 49 94 70 50 64 123 93 166 65z m-1040 -371 l153 -160 -61
-62 -62 -62 -163 163 -162 163 65 59 c36 33 68 60 71 60 4 0 75 -72 159 -161z"/>
<path d="M1083 1522 c-70 -26 -72 -26 -108 -9 -35 17 -38 17 -81 -2 -49 -22
-59 -38 -50 -76 9 -35 48 -57 118 -67 81 -11 94 -20 128 -87 36 -71 54 -91 85
-91 35 0 55 45 52 117 -2 52 2 64 36 120 22 34 37 69 35 79 -9 49 -106 56
-215 16z m155 -8 c29 -8 28 -19 -13 -84 -31 -47 -35 -62 -35 -120 0 -110 -20
-110 -74 -3 -32 64 -57 82 -133 93 -73 10 -91 18 -103 41 -15 27 42 56 77 40
39 -18 95 -13 159 14 62 25 84 29 122 19z"/>
</g>
</svg>
