<?xml version="1.0" standalone="no"?>
<!DOCTYPE svg PUBLIC "-//W3C//DTD SVG 20010904//EN"
 "http://www.w3.org/TR/2001/REC-SVG-20010904/DTD/svg10.dtd">
<svg version="1.0" xmlns="http://www.w3.org/2000/svg"
 width="1972.000000pt" height="2118.000000pt" viewBox="0 0 1972.000000 2118.000000"
 preserveAspectRatio="xMidYMid meet">

<g transform="translate(0.000000,2118.000000) scale(0.100000,-0.100000)"
fill="#000000" stroke="none">
<path d="M9715 18498 c-49 -27 -84 -72 -95 -122 -8 -36 -10 -365 -8 -1101 l3
-1050 23 -37 c73 -117 237 -108 293 16 18 39 19 91 19 1107 l0 1066 -23 44
c-30 55 -85 89 -147 89 -25 -1 -54 -6 -65 -12z"/>
<path d="M7338 17064 c-63 -33 -77 -125 -29 -190 41 -56 164 -172 195 -184 87
-33 176 30 176 123 0 22 -10 48 -29 73 -32 44 -143 152 -181 178 -30 20 -96
20 -132 0z"/>
<path d="M7999 17053 c-75 -63 -189 -189 -194 -215 -14 -64 21 -129 81 -148
66 -22 100 -7 197 88 99 97 120 128 119 183 -2 102 -125 158 -203 92z"/>
<path d="M12290 16796 c0 -2 8 -10 18 -17 15 -13 16 -12 3 4 -13 16 -21 21
-21 13z"/>
<path d="M12581 16684 c0 -11 3 -14 6 -6 3 7 2 16 -1 19 -3 4 -6 -2 -5 -13z"/>
<path d="M12581 16624 c0 -11 3 -14 6 -6 3 7 2 16 -1 19 -3 4 -6 -2 -5 -13z"/>
<path d="M7474 16533 c-30 -17 -124 -114 -172 -177 -40 -52 -24 -143 32 -180
15 -9 46 -16 76 -16 51 0 51 0 131 83 78 80 119 144 119 183 0 34 -35 87 -71
106 -42 23 -76 23 -115 1z"/>
<path d="M7889 16527 c-19 -12 -42 -40 -53 -61 -27 -55 -12 -94 75 -191 91
-101 112 -115 171 -115 86 0 142 80 113 163 -7 19 -47 74 -90 121 -101 110
-149 128 -216 83z"/>
<path d="M4795 16459 c-62 -18 -115 -92 -115 -159 0 -17 9 -47 19 -68 11 -21
354 -371 778 -794 821 -820 776 -780 869 -765 96 16 159 129 124 224 -16 42
-1505 1530 -1555 1554 -43 20 -73 22 -120 8z"/>
<path d="M14645 16450 c-26 -13 -305 -285 -792 -772 -676 -678 -753 -757 -763
-796 -36 -137 95 -254 223 -198 18 8 352 334 794 777 680 682 762 768 769 802
15 84 -18 152 -91 187 -52 25 -89 25 -140 0z"/>
<path d="M9588 14739 c-1297 -67 -2462 -887 -2975 -2094 -55 -129 -131 -351
-164 -478 -110 -430 -136 -931 -74 -1432 49 -396 149 -724 332 -1090 89 -177
98 -194 351 -614 352 -585 507 -927 637 -1406 49 -182 63 -220 103 -289 92
-160 225 -267 408 -328 l69 -23 1505 0 1505 0 70 24 c196 66 346 194 430 366
19 39 57 151 84 250 119 433 251 743 498 1174 53 91 103 177 113 191 54 78
272 451 344 591 195 377 300 698 355 1089 127 901 -42 1724 -509 2470 -121
194 -283 396 -468 584 -536 545 -1208 884 -1967 991 -102 14 -418 36 -475 33
-14 0 -91 -4 -172 -9z m367 -673 c549 -24 1129 -257 1577 -635 679 -571 1045
-1400 1015 -2296 -20 -583 -137 -957 -480 -1531 -170 -285 -307 -480 -492
-704 -101 -123 -406 -427 -515 -513 -1050 -836 -2171 -579 -3222 737 -189 237
-280 370 -419 612 -297 521 -403 926 -403 1549 0 402 55 692 204 1075 12 30
48 108 81 173 152 302 315 524 562 763 421 408 940 663 1527 750 112 16 355
32 415 27 17 -1 84 -5 150 -7z"/>
<path d="M9365 13419 c-603 -60 -1136 -370 -1490 -865 -231 -322 -375 -760
-375 -1138 0 -98 1 -105 29 -143 30 -42 90 -73 139 -73 51 1 108 35 136 82 21
37 26 57 26 114 0 411 195 875 493 1177 310 313 701 491 1136 516 199 11 251
44 259 161 5 68 -12 107 -64 146 -31 24 -46 28 -117 30 -45 1 -122 -2 -172 -7z"/>
<path d="M3598 13983 c7 -3 16 -2 19 1 4 3 -2 6 -13 5 -11 0 -14 -3 -6 -6z"/>
<path d="M14815 13883 c-78 -21 -118 -110 -81 -181 8 -15 51 -63 95 -107 l81
-80 -84 -85 c-93 -94 -106 -114 -106 -160 0 -63 48 -115 111 -121 59 -5 73 2
166 93 l93 92 89 -88 c93 -93 127 -110 187 -94 64 17 106 89 89 155 -3 15 -47
68 -96 118 l-89 91 81 79 c44 44 87 92 95 107 33 63 4 140 -63 170 -68 30 -94
19 -200 -85 l-93 -91 -94 92 c-51 51 -100 92 -107 92 -8 0 -23 2 -34 4 -11 2
-29 2 -40 -1z"/>
<path d="M4551 13854 c0 -11 3 -14 6 -6 3 7 2 16 -1 19 -3 4 -6 -2 -5 -13z"/>
<path d="M4678 13723 c7 -3 16 -2 19 1 4 3 -2 6 -13 5 -11 0 -14 -3 -6 -6z"/>
<path d="M4912 13480 c0 -14 2 -19 5 -12 2 6 2 18 0 25 -3 6 -5 1 -5 -13z"/>
<path d="M4668 12943 c7 -3 16 -2 19 1 4 3 -2 6 -13 5 -11 0 -14 -3 -6 -6z"/>
<path d="M4229 12893 c-13 -16 -12 -17 4 -4 9 7 17 15 17 17 0 8 -8 3 -21 -13z"/>
<path d="M3970 12720 c-9 -6 -10 -10 -3 -10 6 0 15 5 18 10 8 12 4 12 -15 0z"/>
<path d="M2720 11508 c-58 -40 -75 -72 -75 -141 0 -75 27 -120 89 -148 39 -18
89 -19 1102 -19 767 0 1070 3 1095 11 68 23 111 82 111 154 0 55 -26 109 -66
138 l-31 22 -1096 3 -1096 2 -33 -22z"/>
<path d="M14599 11507 c-58 -39 -81 -83 -77 -148 5 -68 35 -114 92 -140 39
-18 89 -19 1101 -19 668 0 1073 4 1096 10 132 37 150 245 25 304 -31 14 -139
16 -1119 16 l-1084 0 -34 -23z"/>
<path d="M15439 9443 l-34 -38 38 34 c20 19 37 36 37 38 0 8 -8 0 -41 -34z"/>
<path d="M14616 9421 c-3 -4 4 -17 17 -27 22 -19 22 -19 4 2 -9 11 -14 24 -10
27 3 4 4 7 0 7 -3 0 -8 -4 -11 -9z"/>
<path d="M4525 9230 c-273 -43 -449 -310 -379 -575 19 -77 54 -136 121 -206
114 -120 283 -167 448 -123 222 57 375 293 337 517 -35 203 -188 356 -389 386
-39 6 -75 10 -80 10 -4 -1 -30 -5 -58 -9z m162 -275 c171 -86 140 -340 -47
-385 -40 -10 -58 -9 -102 4 -124 36 -185 173 -128 290 50 105 170 144 277 91z"/>
<path d="M15508 9213 c7 -3 16 -2 19 1 4 3 -2 6 -13 5 -11 0 -14 -3 -6 -6z"/>
<path d="M14453 9203 c26 -2 67 -2 90 0 23 2 2 3 -48 3 -49 0 -68 -1 -42 -3z"/>
<path d="M15361 9144 c0 -11 3 -14 6 -6 3 7 2 16 -1 19 -3 4 -6 -2 -5 -13z"/>
<path d="M14691 9124 c0 -11 3 -14 6 -6 3 7 2 16 -1 19 -3 4 -6 -2 -5 -13z"/>
<path d="M14526 8668 c3 -5 10 -6 15 -3 13 9 11 12 -6 12 -8 0 -12 -4 -9 -9z"/>
<path d="M6260 8058 c-28 -7 -195 -169 -788 -761 -505 -505 -759 -765 -772
-793 -11 -22 -20 -52 -20 -67 0 -49 31 -108 73 -138 51 -37 124 -40 177 -8 42
26 1505 1491 1532 1534 49 80 -4 201 -101 234 -39 13 -53 13 -101 -1z"/>
<path d="M13190 8054 c-79 -34 -118 -104 -105 -188 6 -38 55 -89 768 -804 419
-420 774 -770 789 -778 91 -48 218 16 234 118 16 95 58 48 -764 872 -518 519
-770 764 -797 777 -48 22 -79 23 -125 3z"/>
<path d="M8206 6664 c-146 -45 -238 -172 -237 -326 0 -133 89 -260 214 -307
l58 -21 1557 2 1557 3 48 24 c67 33 134 101 164 167 32 70 36 174 9 252 -24
69 -100 153 -174 189 l-57 28 -1545 2 c-1351 2 -1551 0 -1594 -13z"/>
<path d="M8239 5733 c-106 -35 -196 -138 -220 -251 -31 -150 47 -304 190 -371
l56 -26 1515 0 1515 0 55 26 c77 36 121 77 161 151 32 58 34 70 34 153 0 80
-3 97 -29 148 -35 68 -98 130 -164 160 l-47 22 -1510 2 c-1341 2 -1515 0
-1556 -14z"/>
<path d="M8897 4820 c-223 -39 -349 -277 -251 -477 33 -68 119 -146 186 -170
50 -17 105 -18 938 -18 1025 0 947 -7 1057 100 52 52 64 71 82 129 25 81 26
125 5 196 -31 104 -101 181 -203 222 l-56 23 -855 2 c-470 0 -877 -3 -903 -7z"/>
</g>
</svg>
